<svg width="131" height="71" viewBox="0 0 131 71" fill="none" xmlns="http://www.w3.org/2000/svg">
<path d="M18.0308 8.28066C20.4922 8.28066 22.3126 8.51141 23.492 8.97292C24.6714 9.43442 25.4918 9.79337 25.9533 10.0498C26.4661 10.3062 26.8507 10.4856 27.1071 10.5882L24.5688 15.8955L23.5689 15.3571C21.4665 14.3315 19.6205 13.8187 18.0308 13.8187C16.6976 13.8187 15.5182 14.2802 14.4926 15.2032C13.5696 16.075 13.1081 16.8954 13.1081 17.6646C12.9543 18.7414 13.1338 19.6644 13.6465 20.4336C14.2106 21.2028 14.9285 21.9207 15.8002 22.5873C16.672 23.2539 17.6206 23.9205 18.6462 24.5872C19.723 25.2538 20.6717 26.0229 21.4921 26.8947C23.5432 28.8945 24.3381 31.4072 23.8766 34.4326C23.4663 37.458 22.1587 39.8937 19.9538 41.7397C17.7488 43.5858 14.7234 44.5088 10.8775 44.5088C7.74953 44.5088 5.03178 43.8678 2.72426 42.5858C2.26275 42.2782 1.87817 42.0474 1.5705 41.8936L4.03186 36.5863C4.28825 36.6888 4.62156 36.8683 5.03178 37.1247C5.49329 37.3811 6.00607 37.6118 6.57013 37.817C8.00592 38.4323 9.33916 38.74 10.5698 38.74C12.8261 38.74 14.5183 37.9708 15.6464 36.4324C16.0053 35.9709 16.2361 35.33 16.3386 34.5095C16.4925 33.6378 16.2874 32.8686 15.7233 32.202C15.1592 31.4841 14.4413 30.8175 13.5696 30.2021C12.6979 29.5355 11.7492 28.8689 10.7237 28.2023C9.69811 27.4844 8.74946 26.6896 7.87773 25.8178C5.87787 23.818 5.08306 21.3053 5.49329 18.2799C5.90351 15.2032 7.21111 12.7675 9.41608 10.9728C11.621 9.17803 14.4926 8.28066 18.0308 8.28066ZM36.7846 43.8165H29.4005L34.3232 8.896H41.7073L36.7846 43.8165ZM56.5756 38.663C58.678 38.663 60.3189 37.6118 61.4983 35.5094C62.6777 33.3557 63.5238 30.3303 64.0366 26.4332C64.6007 22.4847 64.575 19.4593 63.9597 17.3569C63.3444 15.2032 62.0111 14.1264 59.96 14.1264C57.9601 14.1264 56.3705 15.2032 55.1911 17.3569C54.0117 19.4593 53.14 22.4847 52.5759 26.4332C52.0119 30.3303 52.0119 33.3557 52.5759 35.5094C53.14 37.6118 54.4732 38.663 56.5756 38.663ZM60.8061 8.28066C65.1135 8.28066 68.2158 9.74209 70.1131 12.665C72.0104 15.5878 72.5232 20.1772 71.6514 26.4332C70.7797 32.6378 68.985 37.2016 66.2672 40.1245C63.5495 43.0473 60.0369 44.5088 55.7295 44.5088C46.8584 44.5088 43.2689 38.4836 44.9611 26.4332C45.8328 20.1772 47.6276 15.5878 50.3453 12.665C53.0631 9.74209 56.55 8.28066 60.8061 8.28066ZM86.4013 8.896L94.3238 30.8175H94.4007C94.5032 30.5098 94.6314 29.2278 94.7853 26.9716L97.3235 8.896H103.862L98.9388 43.8165H92.4008L84.2476 21.8181C84.1963 22.1771 84.145 22.7155 84.0937 23.4334C84.0425 24.1513 83.9399 24.9205 83.7861 25.7409L81.3247 43.8165H74.8636L79.7864 8.896H86.4013ZM106.074 43.8165L110.997 8.896H129.841L128.918 14.8956H117.611L116.458 22.9719H125.072L124.303 28.5869H115.612L114.304 37.817H125.765L124.995 43.8165H106.074Z" fill="#424141"/>
<rect x="1.20184" y="48.0734" width="128.596" height="15.6239" rx="2.40367" fill="#8BBE6C"/>
<rect x="117.78" width="12.0183" height="6.00917" rx="1.20183" fill="#424141"/>
<path d="M18.3881 56.2579H23.9502C24.1272 56.2579 24.2158 56.3464 24.2158 56.5235C24.2158 56.7214 24.1272 56.8203 23.9502 56.8203H18.6693V61.6793H21.1691C21.3462 61.6793 21.4347 61.7783 21.4347 61.9762C21.4347 62.1533 21.3462 62.2418 21.1691 62.2418H18.6693V67.4133C18.6693 67.5904 18.5756 67.6789 18.3881 67.6789C18.2006 67.6789 18.1068 67.5904 18.1068 67.4133V56.5391C18.1068 56.3516 18.2006 56.2579 18.3881 56.2579ZM35.4945 67.0071C34.9424 67.5174 34.2029 67.7726 33.2759 67.7726C32.3489 67.7726 31.6093 67.5174 31.0573 67.0071C30.5053 66.4863 30.2292 65.6686 30.2292 64.5541V59.4764C30.2292 58.3619 30.5053 57.5494 31.0573 57.039C31.6093 56.5183 32.3489 56.2579 33.2759 56.2579C34.2029 56.2579 34.9424 56.5183 35.4945 57.039C36.0569 57.5494 36.3382 58.3619 36.3382 59.4764V64.5541C36.3382 65.6686 36.0569 66.4863 35.4945 67.0071ZM35.7757 64.5541V59.4764C35.7757 58.591 35.557 57.9296 35.1195 57.4921C34.6925 57.0443 34.0779 56.8203 33.2759 56.8203C32.4739 56.8203 31.8593 57.0443 31.4323 57.4921C31.0052 57.9296 30.7917 58.591 30.7917 59.4764V64.5541C30.7917 65.4395 31.0052 66.1061 31.4323 66.554C31.8593 66.9914 32.4739 67.2102 33.2759 67.2102C34.0779 67.2102 34.6925 66.9914 35.1195 66.554C35.557 66.1061 35.7757 65.4395 35.7757 64.5541ZM48.8724 67.0071C48.3204 67.5174 47.5808 67.7726 46.6538 67.7726C45.7268 67.7726 44.9873 67.5174 44.4352 67.0071C43.8832 66.4863 43.6072 65.6686 43.6072 64.5541V59.4764C43.6072 58.3619 43.8832 57.5494 44.4352 57.039C44.9873 56.5183 45.7268 56.2579 46.6538 56.2579C47.5808 56.2579 48.3204 56.5183 48.8724 57.039C49.4349 57.5494 49.7161 58.3619 49.7161 59.4764V64.5541C49.7161 65.6686 49.4349 66.4863 48.8724 67.0071ZM49.1536 64.5541V59.4764C49.1536 58.591 48.9349 57.9296 48.4974 57.4921C48.0704 57.0443 47.4558 56.8203 46.6538 56.8203C45.8518 56.8203 45.2373 57.0443 44.8102 57.4921C44.3831 57.9296 44.1696 58.591 44.1696 59.4764V64.5541C44.1696 65.4395 44.3831 66.1061 44.8102 66.554C45.2373 66.9914 45.8518 67.2102 46.6538 67.2102C47.4558 67.2102 48.0704 66.9914 48.4974 66.554C48.9349 66.1061 49.1536 65.4395 49.1536 64.5541ZM58.9152 56.8203H56.1342C56.0509 56.8203 55.9832 56.7943 55.9311 56.7422C55.879 56.6797 55.853 56.612 55.853 56.5391C55.853 56.4662 55.879 56.4037 55.9311 56.3516C55.9832 56.2891 56.0509 56.2579 56.1342 56.2579H62.2431C62.4306 56.2579 62.5244 56.3464 62.5244 56.5235C62.5244 56.7214 62.4306 56.8203 62.2431 56.8203H59.4777V67.3977C59.4777 67.5852 59.384 67.6789 59.1965 67.6789C59.009 67.6789 58.9152 67.5852 58.9152 67.3977V56.8203ZM69.1926 67.4133V56.5391C69.1926 56.3516 69.2863 56.2579 69.4738 56.2579H71.8174C72.8485 56.2579 73.6402 56.4401 74.1922 56.8047C74.7442 57.1692 75.0203 57.8567 75.0203 58.867C75.0203 59.5232 74.9005 60.0805 74.6609 60.5388C74.4214 60.9971 74.0985 61.3148 73.6922 61.4918C74.7651 61.9397 75.3015 62.8563 75.3015 64.2416V64.5073C75.3015 65.6113 75.0203 66.4186 74.4578 66.9289C73.9058 67.4289 73.1662 67.6789 72.2392 67.6789H69.4738C69.2863 67.6581 69.1926 67.5695 69.1926 67.4133ZM69.755 67.1164H72.2392C73.9058 67.1164 74.739 66.2467 74.739 64.5073V64.2416C74.739 63.3667 74.5255 62.7365 74.0985 62.3512C73.6714 61.9658 73.0517 61.7731 72.2392 61.7731H69.755V67.1164ZM69.755 56.8203V61.2106H71.9267C72.8225 61.2106 73.4683 61.0388 73.8641 60.695C74.2599 60.3513 74.4578 59.742 74.4578 58.867C74.4578 58.065 74.2339 57.5234 73.786 57.2422C73.3485 56.9609 72.7027 56.8203 71.8486 56.8203H69.755ZM87.7911 67.4758L87.088 64.9135H82.8852L82.1821 67.4758C82.1508 67.6112 82.0519 67.6789 81.8852 67.6789C81.7082 67.6789 81.6196 67.5956 81.6196 67.4289C81.6196 67.3977 81.6248 67.3664 81.6353 67.3352L84.7132 56.3828C84.7548 56.237 84.8486 56.1641 84.9944 56.1641C85.1402 56.1641 85.2392 56.237 85.2912 56.3828L88.3379 67.3352C88.3483 67.3664 88.3535 67.3977 88.3535 67.4289C88.3535 67.5956 88.265 67.6789 88.0879 67.6789C87.9212 67.6789 87.8223 67.6112 87.7911 67.4758ZM84.9944 57.3515L83.0414 64.351H86.9317L84.9944 57.3515ZM100.452 67.6789H95.421C95.2335 67.6789 95.1398 67.5852 95.1398 67.3977V56.5235C95.1398 56.3464 95.2335 56.2579 95.421 56.2579C95.6085 56.2579 95.7022 56.3464 95.7022 56.5235V67.1164H100.452C100.608 67.1164 100.686 67.2102 100.686 67.3977C100.686 67.5852 100.608 67.6789 100.452 67.6789ZM112.579 67.6789H107.548C107.36 67.6789 107.267 67.5852 107.267 67.3977V56.5235C107.267 56.3464 107.36 56.2579 107.548 56.2579C107.735 56.2579 107.829 56.3464 107.829 56.5235V67.1164H112.579C112.735 67.1164 112.813 67.2102 112.813 67.3977C112.813 67.5852 112.735 67.6789 112.579 67.6789Z" fill="#424141"/>
</svg>
